<?xml version="1.0" ?><!DOCTYPE svg  PUBLIC '-//W3C//DTD SVG 1.1//EN'  'http://www.w3.org/Graphics/SVG/1.1/DTD/svg11.dtd'><svg enable-background="new 0 0 512 512" height="512px" id="Pioneer" version="1.1" viewBox="0 0 512 512" width="512px" xml:space="preserve" xmlns="http://www.w3.org/2000/svg" xmlns:xlink="http://www.w3.org/1999/xlink"><circle cx="254.372" cy="72.289" fill="#B8D2FF" r="14.427"/><path d="M427.278,204.14c0,7.547,0.377,13.664-7.17,13.664c-7.546,0-13.664-6.117-13.664-13.664  c0-7.546,6.118-13.664,13.664-13.664C427.655,190.476,427.278,196.594,427.278,204.14z" fill="#B8D2FF"/><path d="M84.973,166.271c0-8.343-0.416-15.107,7.927-15.107c8.344,0,15.107,6.764,15.107,15.107  s-6.764,15.106-15.107,15.106C84.557,181.377,84.973,174.614,84.973,166.271z" fill="#B8D2FF"/><path d="M317.21,215.554h-14.909c-6.296,0-11.399-5.103-11.399-11.398l0,0c0-9.803,7.947-17.75,17.751-17.75h2.206  c9.803,0,17.75,7.947,17.75,17.75l0,0C328.608,210.451,323.505,215.554,317.21,215.554z" fill="#B8D2FF"/><polygon fill="#B8D2FF" points="228.611,129.746 228.611,223.164 117.945,223.164 "/><path d="M325.694,65.83c0,0-0.25,17.75,2,19.5c0,0,25.5,4,51.75-13.75s29.25-34.25,29.25-34.25h-28  C380.694,37.33,362.694,65.33,325.694,65.83z" fill="#B8D2FF"/><path d="M321.944,60.164c0,0-49.666,25.771-45.333,48.552c4.333,22.781,49.667,21.781,62,20.448  s66.667-12.333,88.667-24.333V85.497c0,0-44,24-100,26.333c0,0-38,0.107-25.667-17.613c12.333-17.72,24.321-21.486,24.321-21.486  l1.128-15.868L321.944,60.164z" fill="#B8D2FF"/><path d="M83.81,390.37v82.794h343.03V371.545c0,0-51.229-25.381-64.229-25.381v56.34c0,0-4,20.993-22.667,20.993  c-18.666,0-24.666-16.962-24.666-16.962l-5.523-53.371l-6.477,53.371c0,0-6.667,16.629-23.667,16.629S256.389,409.51,256,402.504  c-0.389-7.007,0-74.34,0-74.34s-54.722-1-87.722,11.333c0,0,5.333,24.333-13.333,23.333c0,0-3.457,18.908-22.062,21.121  L83.81,390.37z" fill="#B8D2FF"/><rect fill="#1F4499" height="7.653" width="7.653" x="318.146" y="293.734"/><rect fill="#1F4499" height="7.653" width="7.653" x="305.441" y="293.734"/><rect fill="#1F4499" height="7.653" width="7.653" x="292.736" y="293.734"/><path d="M309.755,291.936c7.698,0,13.962-6.263,13.962-13.962c0-7.698-6.264-13.961-13.962-13.961  s-13.962,6.263-13.962,13.961C295.793,285.673,302.057,291.936,309.755,291.936z M309.755,274.013c2.185,0,3.962,1.776,3.962,3.961  s-1.777,3.962-3.962,3.962s-3.962-1.777-3.962-3.962S307.57,274.013,309.755,274.013z" fill="#1F4499"/><path d="M141.345,426.126c-6.69,0-12.133,5.443-12.133,12.134s5.442,12.133,12.133,12.133v-10  c-1.176,0-2.133-0.957-2.133-2.133c0-1.177,0.957-2.134,2.133-2.134c1.177,0,2.134,0.957,2.134,2.134h10  C153.479,431.569,148.035,426.126,141.345,426.126z" fill="#1F4499"/><path d="M282.289,452.96c-0.67-0.376-0.921-0.966-1.01-1.283c-0.09-0.317-0.184-0.95,0.192-1.621  c0.574-1.026,1.877-1.395,2.904-0.818l4.889-8.724c-2.827-1.584-6.101-1.973-9.222-1.094c-3.119,0.879-5.71,2.92-7.294,5.746  c-1.585,2.827-1.974,6.102-1.096,9.222c0.879,3.119,2.92,5.71,5.747,7.295c1.871,1.049,3.904,1.546,5.911,1.546  c4.251,0,8.383-2.233,10.605-6.198l-8.723-4.89C284.618,453.167,283.316,453.534,282.289,452.96z" fill="#1F4499"/><path d="M406.317,385.628c-5.762-3.396-13.217-1.471-16.613,4.294c-1.646,2.793-2.104,6.059-1.293,9.197  c0.811,3.138,2.796,5.771,5.588,7.416l5.076-8.616c-0.663-0.39-0.9-0.984-0.983-1.304c-0.082-0.319-0.162-0.954,0.228-1.617  c0.391-0.662,0.985-0.899,1.305-0.982s0.955-0.162,1.616,0.229c1.014,0.597,1.353,1.906,0.756,2.92l8.615,5.077  C414.008,396.477,412.082,389.025,406.317,385.628z" fill="#1F4499"/><path d="M191.444,392.503c-1.176-0.02-2.117-0.991-2.097-2.168c0.019-1.164,0.972-2.098,2.132-2.098  c0.012,0,0.024,0,0.036,0l0.167-9.999c-0.068-0.001-0.137-0.001-0.206-0.001c-6.596,0-12.018,5.31-12.128,11.931  c-0.112,6.688,5.239,12.222,11.929,12.334c0.069,0.001,0.138,0.002,0.206,0.002c6.597,0,12.018-5.311,12.129-11.931l-9.999-0.167  C193.594,391.582,192.658,392.553,191.444,392.503z" fill="#1F4499"/><rect fill="#1F4499" height="9.047" width="9.046" x="125.165" y="140.697"/><rect fill="#1F4499" height="9.047" width="9.046" x="251.182" y="136.174"/><rect fill="#1F4499" height="9.047" width="9.047" x="180.127" y="108.716"/><rect fill="#1F4499" height="9.047" width="9.046" x="154.945" y="94.217"/><rect fill="#1F4499" height="9.047" width="9.047" x="209.979" y="68.207"/><rect fill="#1F4499" height="9.047" width="9.047" x="110.723" y="69.877"/><path d="M416.913,32.4h-22.917h-21.262h-117.03h-1.379l0,0H79.485V479.6h353.029V107.067V32.4l0,0H416.913z   M422.515,213.536c-0.176,0.009-0.352,0.025-0.53,0.025c-5.344,0-9.69-4.352-9.69-9.7c0-5.344,4.347-9.69,9.69-9.69  c0.179,0,0.354,0.016,0.53,0.025V213.536z M422.515,121.289c-9.916,7.375-21.668,11.262-34.141,11.262  c-7.425,0-14.652-1.404-21.388-4.112c11.767-2.482,23.81-5.776,35.968-9.868c6.617-2.22,13.167-4.654,19.561-7.257V121.289z   M399.77,109.091c-16.467,5.543-32.695,9.597-48.24,12.051c-36.471,5.798-64.746,1.492-68.767-10.478  c-2.086-6.193,2.243-14.945,12.19-24.643c1.438-1.401,3.068-2.883,4.841-4.401c4.183-3.578,9.052-7.207,14.479-10.79  c2.313-1.529,4.763-3.059,7.306-4.582c-0.158,1.204-0.286,2.414-0.38,3.629c-14.234,9.177-29.202,22.155-25.094,34.365  c2.799,8.332,13.406,12.631,30.907,12.63c3.402,0,7.068-0.162,10.985-0.49c4.759-0.395,9.809-1.043,15.056-1.909l0.001,0.009  c4.85-0.726,9.523-1.646,14.023-2.751c9.822-2.206,20.063-5.07,30.281-8.503c8.744-2.943,17.172-6.185,25.155-9.668v6.933  C415.134,103.612,407.499,106.498,399.77,109.091z M371.099,42.4c-0.745,0.647-1.501,1.281-2.268,1.899  c-0.8,0.645-1.611,1.273-2.434,1.887c-1.646,1.228-3.358,2.402-5.09,3.495c-8.662,5.469-18.397,9.226-28.481,11.03  c0.247-0.954,0.511-1.902,0.807-2.84c1.739-5.521,4.3-10.714,7.621-15.472H371.099z M321.325,81.874  c0.862,8.782,3.42,17.223,7.557,24.96c-14.511,0.238-22.229-2.591-23.298-5.778C304.774,98.65,307.388,91.876,321.325,81.874z   M422.515,82.61c-1.7,0.775-3.423,1.54-5.169,2.292c1.814-1.829,3.54-3.729,5.169-5.707V82.61z M363.938,102.192  c-8.416,1.858-16.476,3.199-23.871,3.955c-3.096-4.803-5.432-9.989-6.956-15.426c6.033-0.05,12.054-0.695,17.905-1.932l-2.066-9.784  c-5.42,1.145-11.003,1.726-16.596,1.726c-0.365,0-0.73-0.013-1.097-0.018c-0.175-1.833-0.273-3.68-0.273-5.542  c0-0.758,0.019-1.506,0.046-2.247c0.023-0.61,0.059-1.218,0.102-1.825c12.576-1.745,24.778-6.182,35.514-12.96  c1.947-1.229,3.874-2.551,5.728-3.933c0.925-0.689,1.836-1.396,2.734-2.121c3.65-2.944,7.069-6.204,10.222-9.684h15.255  c-9.242,15.084-23.49,26.979-40.068,33.226l3.525,9.357c20.831-7.849,37.761-22.912,48.012-42.583h10.462v18.992  C409.196,85.786,385.229,97.065,363.938,102.192z M329.484,42.4c-1.875,3.359-3.454,6.87-4.726,10.509  c-5.754,3.141-11.132,6.358-15.999,9.578c-5.768,3.808-10.971,7.688-15.469,11.536c-1.937,1.659-3.726,3.286-5.317,4.837  c-16.474,16.06-17.08,27.896-14.688,34.992c4.374,13.021,21.597,19.943,47.844,19.942c8.986,0,19.044-0.823,29.991-2.479  c11.044,7.352,23.877,11.234,37.254,11.234c12.032,0,23.852-3.269,34.141-9.31v50.955c-0.177-0.005-0.352-0.025-0.53-0.025  c-10.857,0-19.69,8.833-19.69,19.69c0,10.862,8.833,19.7,19.69,19.7c0.179,0,0.354-0.021,0.53-0.025v140.167  c-17.728-9.2-36.265-16.921-55.246-23.051l0.009-33.843l-0.004-7.568l17.905,12.681c4.716,3.341,10.442,4.608,16.131,3.573  c5.686-1.035,10.599-4.243,13.834-9.032c6.466-9.572,4.028-22.749-5.434-29.375l-40.421-28.303  c-1.408-0.979-2.865-1.896-4.358-2.755v-44.177c0-6.024-4.273-11.065-9.948-12.258v-5.311c0-6.315-5.138-11.453-11.452-11.453  h-15.82c-5.375-3.294-11.689-5.197-18.442-5.197c-6.752,0-13.067,1.903-18.442,5.197h-15.801c-6.315,0-11.453,5.138-11.453,11.453  v5.304c-5.683,1.186-9.965,6.235-9.965,12.269v44.217c-1.481,0.863-2.935,1.784-4.354,2.771l-16.316,11.424V120.403L106.261,227.23  h116.675v40.039l-14.09,9.866c-9.462,6.626-11.899,19.804-5.433,29.375c3.235,4.788,8.148,7.997,13.834,9.032  c1.905,0.348,3.813,0.413,5.688,0.252v8.908c-17.68,1.604-35.19,4.485-52.365,8.639l-3.344-21.582  c-0.614-3.99-2.746-7.5-6.004-9.885c-3.26-2.386-7.254-3.357-11.243-2.735l-2.063,0.319c-1.716-2.359-3.802-4.466-6.224-6.238  c-6.126-4.484-13.631-6.314-21.133-5.151l-31.074,4.816V185.435c1.187,0.221,2.397,0.346,3.63,0.346c10.862,0,19.7-8.833,19.7-19.69  c0-10.862-8.838-19.7-19.7-19.7c-1.232,0-2.443,0.125-3.63,0.347V42.4H329.484z M357.257,387.792h-38.419l-0.142-3.789h38.562  L357.257,387.792z M357.254,397.792l-0.001,1.755c0,10.466-8.515,18.98-18.98,18.98c-10.252,0-18.582-8.025-18.968-18.27  l-0.092-2.466H357.254z M357.265,356.901h-22.272v10h22.27l-0.002,7.102h-38.938l-0.712-18.991c-0.168-4.508-3.835-8.04-8.347-8.04  c-4.496,0-8.162,3.52-8.346,8.014l-0.772,19.018h-38.86v-7.102h22.645v-10h-22.645v-2.963h9.618v-10h-9.618v-5.969h95.985  l-0.002,5.969h-8.838v10h8.836L357.265,356.901z M222.936,217.23H133.63l89.306-75.313V217.23z M263.605,201.855  c0-1.396,1.133-2.534,2.525-2.534h7.933c-0.128,1.22-0.196,2.458-0.196,3.711v29.517c0,2.043,0.418,3.991,1.171,5.762  c-3.905,0.658-7.729,1.676-11.433,3.045V201.855z M403.974,285.278c5.021,3.516,6.313,10.507,2.883,15.585  c-1.716,2.542-4.323,4.243-7.34,4.793c-3.016,0.55-6.057-0.124-8.559-1.896l-2.856-2.023l12.646-18.718L403.974,285.278z   M379.938,295.955l-22.673-16.058l0.012,26.911l-0.002,8.474l-17.094-10.853c0.628-1.676,0.987-3.48,0.987-5.372v-31.425  c0-1.646-0.267-3.23-0.748-4.719l18.598-8.736c1.566,0.861,3.09,1.794,4.549,2.808l28.986,20.296L379.938,295.955z M261.285,327.115  l23.504-14.928c2.322,1.411,5.037,2.24,7.947,2.24H325.8c2.91,0,5.624-0.828,7.946-2.239l23.526,14.937v0.845h-95.987V327.115z   M286.531,210.621c2.376,6.131,8.322,10.498,15.282,10.498h14.909c6.961,0,12.907-4.367,15.284-10.498h2.661v12.026h-50.801v-12.026  H286.531z M295.415,204.72c0-7.031,5.72-12.75,12.751-12.75h2.205c7.031,0,12.751,5.719,12.751,12.75  c0,3.528-2.871,6.399-6.399,6.399h-14.909C298.285,211.119,295.415,208.248,295.415,204.72z M288.643,237.325  c-2.6,0-4.712-2.091-4.766-4.678h50.781c-0.053,2.587-2.166,4.678-4.766,4.678H288.643z M285.711,247.412h46.766  c4.65,0,9.276,0.598,13.737,1.732l-12.006,5.64c-2.418-1.589-5.305-2.521-8.408-2.521h-33.063c-3.104,0-5.992,0.934-8.411,2.522  l-12.066-5.67C276.618,247.994,281.128,247.412,285.711,247.412z M331.169,267.633v31.425c0,2.96-2.408,5.37-5.369,5.37h-33.063  c-2.961,0-5.369-2.41-5.369-5.37v-31.425c0-2.96,2.408-5.369,5.369-5.369H325.8C328.761,262.264,331.169,264.673,331.169,267.633z   M343.476,238.357c0.766-1.784,1.192-3.746,1.192-5.807v-29.517c0-1.253-0.067-2.49-0.195-3.71h7.93  c1.395,0,2.528,1.135,2.528,2.529v39.535C351.229,240.039,347.39,239.024,343.476,238.357z M344.982,189.322h-3.079  c-0.97-2.299-2.181-4.47-3.592-6.492h5.219c0.801,0,1.452,0.651,1.452,1.453V189.322z M334.551,200.621h-1.806  c-1.937-10.594-11.229-18.651-22.374-18.651h-2.205c-11.145,0-20.437,8.058-22.374,18.651h-1.807  c1.219-12.878,12.091-22.988,25.282-22.988C322.46,177.633,333.331,187.743,334.551,200.621z M276.632,189.322h-3.061v-5.039  c0-0.802,0.652-1.453,1.453-1.453h5.199C278.813,184.852,277.602,187.023,276.632,189.322z M254.972,257.045  c1.486-1.033,3.019-1.978,4.583-2.85l18.561,8.721c-0.481,1.488-0.748,3.072-0.748,4.717v31.425c0,1.892,0.36,3.695,0.987,5.37  l-17.069,10.84v-35.318l-22.665,16.053l-12.668-18.637L254.972,257.045z M217.76,283.102l12.698,18.682l-2.861,2.025  c-2.501,1.771-5.538,2.447-8.558,1.896c-3.017-0.55-5.624-2.251-7.341-4.793c-3.431-5.078-2.137-12.069,2.883-15.585L217.76,283.102  z M233.377,311.97l17.909-12.684l-0.001,23.951c-6.128,0.079-12.247,0.305-18.35,0.689v-11.676  C233.08,312.152,233.233,312.071,233.377,311.97z M299.584,387.792h-38.3v-3.789h38.454L299.584,387.792z M261.283,397.792h37.895  l-0.106,2.601c-0.414,10.168-8.709,18.135-18.886,18.135c-10.423,0-18.902-8.48-18.902-18.902V397.792z M159.892,356.705  c-0.054-0.563-0.118-1.126-0.206-1.691l-6.689-43.209c-0.149-0.961-0.347-1.906-0.587-2.834c1.041,0.02,2.05,0.348,2.907,0.975  c1.1,0.805,1.819,1.988,2.027,3.341l5.861,37.834c0.21,1.348-0.118,2.695-0.923,3.795  C161.672,355.748,160.842,356.363,159.892,356.705z M89.485,157.096c1.14-0.463,2.365-0.706,3.63-0.706c5.349,0,9.7,4.351,9.7,9.7  c0,5.344-4.352,9.69-9.7,9.69c-1.265,0-2.49-0.242-3.63-0.705V157.096z M89.485,303.005l20.645-3.2l3.943,26.351l-24.588,3.835  V303.005z M89.485,340.111l35.95-5.606l-5.424-36.231l2.078-0.322c10.035-1.553,19.469,5.346,21.023,15.384l6.69,43.211  c1.554,10.037-5.348,19.468-15.385,21.023l-44.934,6.966V340.111z M89.485,469.6v-74.945l46.466-7.203  c11.326-1.754,20.058-10.015,22.995-20.384l1.528-0.237c8.235-1.282,13.893-9.02,12.611-17.245l-0.979-6.32  c16.668-4.073,33.663-6.924,50.828-8.524v89.1h10v-89.889c6.102-0.396,12.221-0.633,18.35-0.714l-0.001,66.388  c0,15.938,12.965,28.902,28.901,28.902c15.561,0,28.245-12.18,28.878-27.729l0.133-3.266l0.116,3.099  c0.586,15.643,13.308,27.896,28.96,27.896c15.979,0,28.98-13,28.98-28.979l0.013-48.382c19.034,6.343,37.573,14.354,55.249,23.865  V469.6H89.485z" fill="#1F4499"/><path d="M254.325,92.423c10.857,0,19.691-8.834,19.691-19.692s-8.834-19.692-19.691-19.692  c-10.858,0-19.692,8.834-19.692,19.692S243.467,92.423,254.325,92.423z M254.325,63.038c5.344,0,9.691,4.348,9.691,9.692  c0,5.344-4.348,9.692-9.691,9.692c-5.345,0-9.692-4.349-9.692-9.692C244.633,67.386,248.98,63.038,254.325,63.038z" fill="#1F4499"/><rect fill="#1F4499" height="10" transform="matrix(0.9869 -0.1611 0.1611 0.9869 -57.1452 24.4284)" width="24.588" x="109.784" y="359.63"/><rect fill="#1F4499" height="10" transform="matrix(0.987 -0.161 0.161 0.987 -54.9386 23.8921)" width="24.587" x="107.652" y="345.918"/></svg>